<svg xmlns="http://www.w3.org/2000/svg" width="720" height="180" viewBox="0 0 720 180">
<rect width="720" height="180" rx="32" fill="#0B3157"/>
<g transform="translate(28 22)">
<path d="M28 112V38c0-10 8-18 18-18h50c10 0 18 8 18 18v38" fill="none" stroke="#BB8547" stroke-width="18" stroke-linecap="round"/>
<path d="M28 112h66" stroke="#fff" stroke-width="18" stroke-linecap="round"/>
<path d="M77 54c0-22 17-40 39-40s39 18 39 40c0 30-39 62-39 62S77 84 77 54Z" fill="#fff"/>
<circle cx="116" cy="54" r="12" fill="#0B3157"/>
</g>
<text x="175" y="108" font-family="Arial,sans-serif" font-size="70" font-weight="800" fill="#fff">Liguey</text>
<text x="430" y="108" font-family="Arial,sans-serif" font-size="70" font-weight="800" fill="#BB8547">Pro</text>
<text x="585" y="76" font-family="Arial,sans-serif" font-size="25" font-weight="800" fill="#fff">2.0</text>
<text x="178" y="143" font-family="Arial,sans-serif" font-size="18" fill="#D9E2EA">Vos services, plus proches, plus simples.</text>
</svg>
